REM DIRINDEX 1\2,1\3
REM DIRNAME cjc039,folder01,folder02
TITLE ""
FILE "1521-1540.mp3" MP3
  TRACK 01 AUDIO
    TITLE "0:"
    INDEX 01 00:00:00
  TRACK 02 AUDIO
    TITLE "2:cjc039_2041"
    INDEX 01 00:00:25
  TRACK 03 AUDIO
    TITLE "0:"
    INDEX 01 00:01:42
  TRACK 04 AUDIO
    TITLE "3:cjc039_2042"
    INDEX 01 00:02:20
  TRACK 05 AUDIO
    TITLE "0:"
    INDEX 01 00:06:31
  TRACK 06 AUDIO
    TITLE "2:cjc039_2043"
    INDEX 01 00:08:07
  TRACK 07 AUDIO
    TITLE "0:"
    INDEX 01 00:09:34
  TRACK 08 AUDIO
    TITLE "3:cjc039_2044"
    INDEX 01 00:10:08
  TRACK 09 AUDIO
    TITLE "0:"
    INDEX 01 00:14:11
  TRACK 10 AUDIO
    TITLE "2:cjc039_2045"
    INDEX 01 00:15:60
  TRACK 11 AUDIO
    TITLE "0:"
    INDEX 01 00:17:14
  TRACK 12 AUDIO
    TITLE "3:cjc039_2046"
    INDEX 01 00:17:61
  TRACK 13 AUDIO
    TITLE "0:"
    INDEX 01 00:21:58
  TRACK 14 AUDIO
    TITLE "2:cjc039_2047"
    INDEX 01 00:23:36
  TRACK 15 AUDIO
    TITLE "0:"
    INDEX 01 00:24:57
  TRACK 16 AUDIO
    TITLE "3:cjc039_2048"
    INDEX 01 00:25:27
  TRACK 17 AUDIO
    TITLE "0:"
    INDEX 01 00:29:38
  TRACK 18 AUDIO
    TITLE "2:cjc039_2049"
    INDEX 01 00:31:12
  TRACK 19 AUDIO
    TITLE "0:"
    INDEX 01 00:32:03
  TRACK 20 AUDIO
    TITLE "3:cjc039_2050"
    INDEX 01 00:32:58
  TRACK 21 AUDIO
    TITLE "0:"
    INDEX 01 00:36:07
  TRACK 22 AUDIO
    TITLE "2:cjc039_2051"
    INDEX 01 00:37:56
  TRACK 23 AUDIO
    TITLE "0:"
    INDEX 01 00:39:13
  TRACK 24 AUDIO
    TITLE "3:cjc039_2052"
    INDEX 01 00:39:68
  TRACK 25 AUDIO
    TITLE "0:"
    INDEX 01 00:43:62
  TRACK 26 AUDIO
    TITLE "2:cjc039_2053"
    INDEX 01 00:45:41
  TRACK 27 AUDIO
    TITLE "0:"
    INDEX 01 00:46:45
  TRACK 28 AUDIO
    TITLE "3:cjc039_2054"
    INDEX 01 00:47:23
  TRACK 29 AUDIO
    TITLE "0:"
    INDEX 01 00:50:70
  TRACK 30 AUDIO
    TITLE "2:cjc039_2055"
    INDEX 01 00:52:51
  TRACK 31 AUDIO
    TITLE "0:"
    INDEX 01 00:54:27
  TRACK 32 AUDIO
    TITLE "3:cjc039_2056"
    INDEX 01 00:54:74
  TRACK 33 AUDIO
    TITLE "0:"
    INDEX 01 00:59:18
  TRACK 34 AUDIO
    TITLE "2:cjc039_2057"
    INDEX 01 01:00:62
  TRACK 35 AUDIO
    TITLE "0:"
    INDEX 01 01:02:08
  TRACK 36 AUDIO
    TITLE "3:cjc039_2058"
    INDEX 01 01:02:54
  TRACK 37 AUDIO
    TITLE "0:"
    INDEX 01 01:06:32
  TRACK 38 AUDIO
    TITLE "2:cjc039_2059"
    INDEX 01 01:08:03
  TRACK 39 AUDIO
    TITLE "0:"
    INDEX 01 01:09:40
  TRACK 40 AUDIO
    TITLE "3:cjc039_2060"
    INDEX 01 01:10:14
  TRACK 41 AUDIO
    TITLE "0:"
    INDEX 01 01:14:06
  TRACK 42 AUDIO
    TITLE "2:cjc039_2061"
    INDEX 01 01:15:56
  TRACK 43 AUDIO
    TITLE "0:"
    INDEX 01 01:16:63
  TRACK 44 AUDIO
    TITLE "3:cjc039_2062"
    INDEX 01 01:17:41
  TRACK 45 AUDIO
    TITLE "0:"
    INDEX 01 01:21:14
  TRACK 46 AUDIO
    TITLE "2:cjc039_2063"
    INDEX 01 01:22:70
  TRACK 47 AUDIO
    TITLE "0:"
    INDEX 01 01:24:30
  TRACK 48 AUDIO
    TITLE "3:cjc039_2064"
    INDEX 01 01:25:08
  TRACK 49 AUDIO
    TITLE "0:"
    INDEX 01 01:29:66
  TRACK 50 AUDIO
    TITLE "2:cjc039_2065"
    INDEX 01 01:31:39
  TRACK 51 AUDIO
    TITLE "0:"
    INDEX 01 01:32:68
  TRACK 52 AUDIO
    TITLE "3:cjc039_2066"
    INDEX 01 01:33:44
  TRACK 53 AUDIO
    TITLE "0:"
    INDEX 01 01:36:41
  TRACK 54 AUDIO
    TITLE "2:cjc039_2067"
    INDEX 01 01:38:18
  TRACK 55 AUDIO
    TITLE "0:"
    INDEX 01 01:39:43
  TRACK 56 AUDIO
    TITLE "3:cjc039_2068"
    INDEX 01 01:40:15
  TRACK 57 AUDIO
    TITLE "0:"
    INDEX 01 01:45:00
  TRACK 58 AUDIO
    TITLE "2:cjc039_2069"
    INDEX 01 01:46:53
  TRACK 59 AUDIO
    TITLE "0:"
    INDEX 01 01:47:70
  TRACK 60 AUDIO
    TITLE "3:cjc039_2070"
    INDEX 01 01:48:48
  TRACK 61 AUDIO
    TITLE "0:"
    INDEX 01 01:52:16
  TRACK 62 AUDIO
    TITLE "2:cjc039_2071"
    INDEX 01 01:53:69
  TRACK 63 AUDIO
    TITLE "0:"
    INDEX 01 01:55:24
  TRACK 64 AUDIO
    TITLE "3:cjc039_2072"
    INDEX 01 01:55:67
  TRACK 65 AUDIO
    TITLE "0:"
    INDEX 01 01:58:44
  TRACK 66 AUDIO
    TITLE "2:cjc039_2073"
    INDEX 01 02:00:20
  TRACK 67 AUDIO
    TITLE "0:"
    INDEX 01 02:01:39
  TRACK 68 AUDIO
    TITLE "3:cjc039_2074"
    INDEX 01 02:02:15
  TRACK 69 AUDIO
    TITLE "0:"
    INDEX 01 02:06:08
  TRACK 70 AUDIO
    TITLE "2:cjc039_2075"
    INDEX 01 02:07:63
  TRACK 71 AUDIO
    TITLE "0:"
    INDEX 01 02:09:28
  TRACK 72 AUDIO
    TITLE "3:cjc039_2076"
    INDEX 01 02:10:06
  TRACK 73 AUDIO
    TITLE "0:"
    INDEX 01 02:15:05
  TRACK 74 AUDIO
    TITLE "2:cjc039_2077"
    INDEX 01 02:16:58
  TRACK 75 AUDIO
    TITLE "0:"
    INDEX 01 02:17:69
  TRACK 76 AUDIO
    TITLE "3:cjc039_2078"
    INDEX 01 02:18:45
  TRACK 77 AUDIO
    TITLE "0:"
    INDEX 01 02:23:07
  TRACK 78 AUDIO
    TITLE "2:cjc039_2079"
    INDEX 01 02:24:57
  TRACK 79 AUDIO
    TITLE "0:"
    INDEX 01 02:26:27
  TRACK 80 AUDIO
    TITLE "3:cjc039_2080"
    INDEX 01 02:27:01
  TRACK 81 AUDIO
    TITLE "0:"
    INDEX 01 02:30:72
